<mxfile host="app.diagrams.net" agent="Mozilla/5.0 (Macintosh; Intel Mac OS X 10_15_7) AppleWebKit/537.36 (KHTML, like Gecko) Chrome/131.0.0.0 Safari/537.36" version="26.0.4">
  <diagram id="C5RBs43oDa-KdzZeNtuy" name="Page-1">
    <mxGraphModel dx="1434" dy="795" grid="1" gridSize="10" guides="1" tooltips="1" connect="1" arrows="1" fold="1" page="1" pageScale="1" pageWidth="827" pageHeight="1169" math="0" shadow="0">
      <root>
        <mxCell id="WIyWlLk6GJQsqaUBKTNV-0" />
        <mxCell id="WIyWlLk6GJQsqaUBKTNV-1" parent="WIyWlLk6GJQsqaUBKTNV-0" />
        <mxCell id="fTIkMr9ofkkiDOPzr_Y9-4" style="edgeStyle=orthogonalEdgeStyle;rounded=0;orthogonalLoop=1;jettySize=auto;html=1;" edge="1" parent="WIyWlLk6GJQsqaUBKTNV-1" source="fTIkMr9ofkkiDOPzr_Y9-0" target="fTIkMr9ofkkiDOPzr_Y9-3">
          <mxGeometry relative="1" as="geometry" />
        </mxCell>
        <mxCell id="fTIkMr9ofkkiDOPzr_Y9-0" value="Actor" style="shape=umlActor;verticalLabelPosition=bottom;verticalAlign=top;html=1;outlineConnect=0;" vertex="1" parent="WIyWlLk6GJQsqaUBKTNV-1">
          <mxGeometry x="50" y="555" width="30" height="60" as="geometry" />
        </mxCell>
        <mxCell id="fTIkMr9ofkkiDOPzr_Y9-6" style="edgeStyle=orthogonalEdgeStyle;rounded=0;orthogonalLoop=1;jettySize=auto;html=1;exitX=1;exitY=0.5;exitDx=0;exitDy=0;entryX=0;entryY=0.5;entryDx=0;entryDy=0;" edge="1" parent="WIyWlLk6GJQsqaUBKTNV-1" source="fTIkMr9ofkkiDOPzr_Y9-3" target="fTIkMr9ofkkiDOPzr_Y9-5">
          <mxGeometry relative="1" as="geometry" />
        </mxCell>
        <mxCell id="fTIkMr9ofkkiDOPzr_Y9-3" value="spid" style="rounded=1;whiteSpace=wrap;html=1;" vertex="1" parent="WIyWlLk6GJQsqaUBKTNV-1">
          <mxGeometry x="150" y="555" width="120" height="60" as="geometry" />
        </mxCell>
        <mxCell id="fTIkMr9ofkkiDOPzr_Y9-8" style="edgeStyle=orthogonalEdgeStyle;rounded=0;orthogonalLoop=1;jettySize=auto;html=1;exitX=1;exitY=0.5;exitDx=0;exitDy=0;entryX=0;entryY=0.5;entryDx=0;entryDy=0;" edge="1" parent="WIyWlLk6GJQsqaUBKTNV-1" source="fTIkMr9ofkkiDOPzr_Y9-5" target="fTIkMr9ofkkiDOPzr_Y9-7">
          <mxGeometry relative="1" as="geometry" />
        </mxCell>
        <mxCell id="fTIkMr9ofkkiDOPzr_Y9-5" value="transporte publico" style="rounded=1;whiteSpace=wrap;html=1;" vertex="1" parent="WIyWlLk6GJQsqaUBKTNV-1">
          <mxGeometry x="354" y="555" width="120" height="60" as="geometry" />
        </mxCell>
        <mxCell id="fTIkMr9ofkkiDOPzr_Y9-10" value="PIX&lt;div&gt;&lt;br&gt;&lt;/div&gt;" style="edgeStyle=orthogonalEdgeStyle;rounded=0;orthogonalLoop=1;jettySize=auto;html=1;exitX=0.5;exitY=0;exitDx=0;exitDy=0;" edge="1" parent="WIyWlLk6GJQsqaUBKTNV-1" source="fTIkMr9ofkkiDOPzr_Y9-7" target="fTIkMr9ofkkiDOPzr_Y9-9">
          <mxGeometry relative="1" as="geometry" />
        </mxCell>
        <mxCell id="fTIkMr9ofkkiDOPzr_Y9-14" style="edgeStyle=orthogonalEdgeStyle;rounded=0;orthogonalLoop=1;jettySize=auto;html=1;entryX=0;entryY=0.5;entryDx=0;entryDy=0;" edge="1" parent="WIyWlLk6GJQsqaUBKTNV-1" source="fTIkMr9ofkkiDOPzr_Y9-7" target="fTIkMr9ofkkiDOPzr_Y9-13">
          <mxGeometry relative="1" as="geometry" />
        </mxCell>
        <mxCell id="fTIkMr9ofkkiDOPzr_Y9-7" value="Debito, credito ou pix" style="rhombus;whiteSpace=wrap;html=1;" vertex="1" parent="WIyWlLk6GJQsqaUBKTNV-1">
          <mxGeometry x="530" y="545" width="80" height="80" as="geometry" />
        </mxCell>
        <mxCell id="fTIkMr9ofkkiDOPzr_Y9-12" style="edgeStyle=orthogonalEdgeStyle;rounded=0;orthogonalLoop=1;jettySize=auto;html=1;exitX=0.5;exitY=0;exitDx=0;exitDy=0;" edge="1" parent="WIyWlLk6GJQsqaUBKTNV-1" source="fTIkMr9ofkkiDOPzr_Y9-9" target="fTIkMr9ofkkiDOPzr_Y9-11">
          <mxGeometry relative="1" as="geometry" />
        </mxCell>
        <mxCell id="fTIkMr9ofkkiDOPzr_Y9-9" value="PIX" style="rounded=1;whiteSpace=wrap;html=1;" vertex="1" parent="WIyWlLk6GJQsqaUBKTNV-1">
          <mxGeometry x="510" y="430" width="120" height="60" as="geometry" />
        </mxCell>
        <mxCell id="fTIkMr9ofkkiDOPzr_Y9-11" value="Solicita QrCode para Onboard" style="rounded=1;whiteSpace=wrap;html=1;" vertex="1" parent="WIyWlLk6GJQsqaUBKTNV-1">
          <mxGeometry x="510" y="320" width="120" height="60" as="geometry" />
        </mxCell>
        <mxCell id="fTIkMr9ofkkiDOPzr_Y9-16" style="edgeStyle=orthogonalEdgeStyle;rounded=0;orthogonalLoop=1;jettySize=auto;html=1;exitX=1;exitY=0.5;exitDx=0;exitDy=0;" edge="1" parent="WIyWlLk6GJQsqaUBKTNV-1" source="fTIkMr9ofkkiDOPzr_Y9-13" target="fTIkMr9ofkkiDOPzr_Y9-15">
          <mxGeometry relative="1" as="geometry" />
        </mxCell>
        <mxCell id="fTIkMr9ofkkiDOPzr_Y9-13" value="Debito" style="rounded=1;whiteSpace=wrap;html=1;" vertex="1" parent="WIyWlLk6GJQsqaUBKTNV-1">
          <mxGeometry x="680" y="555" width="120" height="60" as="geometry" />
        </mxCell>
        <mxCell id="fTIkMr9ofkkiDOPzr_Y9-18" style="edgeStyle=orthogonalEdgeStyle;rounded=0;orthogonalLoop=1;jettySize=auto;html=1;exitX=1;exitY=0.5;exitDx=0;exitDy=0;entryX=0;entryY=0.5;entryDx=0;entryDy=0;" edge="1" parent="WIyWlLk6GJQsqaUBKTNV-1" source="fTIkMr9ofkkiDOPzr_Y9-15" target="fTIkMr9ofkkiDOPzr_Y9-17">
          <mxGeometry relative="1" as="geometry" />
        </mxCell>
        <mxCell id="fTIkMr9ofkkiDOPzr_Y9-15" value="Obter credenciais da Cielo" style="rounded=1;whiteSpace=wrap;html=1;" vertex="1" parent="WIyWlLk6GJQsqaUBKTNV-1">
          <mxGeometry x="860" y="555" width="120" height="60" as="geometry" />
        </mxCell>
        <mxCell id="fTIkMr9ofkkiDOPzr_Y9-20" style="edgeStyle=orthogonalEdgeStyle;rounded=0;orthogonalLoop=1;jettySize=auto;html=1;exitX=1;exitY=0.5;exitDx=0;exitDy=0;" edge="1" parent="WIyWlLk6GJQsqaUBKTNV-1" source="fTIkMr9ofkkiDOPzr_Y9-17" target="fTIkMr9ofkkiDOPzr_Y9-19">
          <mxGeometry relative="1" as="geometry" />
        </mxCell>
        <mxCell id="fTIkMr9ofkkiDOPzr_Y9-17" value="Token do cartão (para obter dados do cartão)" style="rounded=1;whiteSpace=wrap;html=1;" vertex="1" parent="WIyWlLk6GJQsqaUBKTNV-1">
          <mxGeometry x="1030" y="555" width="120" height="60" as="geometry" />
        </mxCell>
        <mxCell id="fTIkMr9ofkkiDOPzr_Y9-19" value="Realizar pagamento, utilizando API da Cielo" style="rounded=1;whiteSpace=wrap;html=1;" vertex="1" parent="WIyWlLk6GJQsqaUBKTNV-1">
          <mxGeometry x="1190" y="555" width="120" height="60" as="geometry" />
        </mxCell>
        <mxCell id="fTIkMr9ofkkiDOPzr_Y9-23" style="edgeStyle=orthogonalEdgeStyle;rounded=0;orthogonalLoop=1;jettySize=auto;html=1;exitX=1;exitY=0.5;exitDx=0;exitDy=0;entryX=0;entryY=0.5;entryDx=0;entryDy=0;" edge="1" parent="WIyWlLk6GJQsqaUBKTNV-1" source="fTIkMr9ofkkiDOPzr_Y9-21" target="fTIkMr9ofkkiDOPzr_Y9-22">
          <mxGeometry relative="1" as="geometry" />
        </mxCell>
        <mxCell id="fTIkMr9ofkkiDOPzr_Y9-21" value="Fazer dinheiro aparecer na conta do ente publico" style="rounded=1;whiteSpace=wrap;html=1;" vertex="1" parent="WIyWlLk6GJQsqaUBKTNV-1">
          <mxGeometry x="1380" y="555" width="120" height="60" as="geometry" />
        </mxCell>
        <mxCell id="fTIkMr9ofkkiDOPzr_Y9-22" value="Aparecer na carteira da OnBoard" style="rounded=1;whiteSpace=wrap;html=1;" vertex="1" parent="WIyWlLk6GJQsqaUBKTNV-1">
          <mxGeometry x="1550" y="555" width="120" height="60" as="geometry" />
        </mxCell>
      </root>
    </mxGraphModel>
  </diagram>
</mxfile>
